<svg width="17" height="11" viewBox="0 0 17 11" fill="none" xmlns="http://www.w3.org/2000/svg">
<path d="M9.34971 10.1438L16.7349 2.80946C16.9058 2.63983 17 2.41338 17 2.17193C17 1.93047 16.9058 1.70403 16.7349 1.53439L16.1911 0.994266C15.8368 0.642803 15.261 0.642803 14.9072 0.994266L8.70559 7.15311L2.49709 0.987432C2.32614 0.817797 2.09826 0.724136 1.85526 0.724136C1.61199 0.724136 1.38411 0.817797 1.21303 0.987432L0.66942 1.52756C0.498472 1.69733 0.404297 1.92364 0.404297 2.16509C0.404297 2.40655 0.498472 2.633 0.66942 2.80263L8.06133 10.1438C8.23282 10.3139 8.46178 10.4073 8.70518 10.4067C8.94953 10.4073 9.17836 10.3139 9.34971 10.1438Z" fill="#484848"/>
</svg>
