<svg width="1127" height="663" viewBox="0 0 1127 663" fill="none" xmlns="http://www.w3.org/2000/svg">
<path d="M519.524 644.126L18.0044 142.596C6.39544 130.997 0 115.512 0 99.0011C0 82.4902 6.39544 67.0056 18.0044 55.4058L54.9293 18.4717C78.9901 -5.56165 118.096 -5.56165 142.12 18.4717L563.266 439.618L984.88 18.0044C996.489 6.40461 1011.96 0 1028.47 0C1044.99 0 1060.46 6.40461 1072.08 18.0044L1109 54.9385C1120.6 66.5474 1127 82.0229 1127 98.5338C1127 115.045 1120.6 130.529 1109 142.129L607.017 644.126C595.372 655.753 579.823 662.139 563.294 662.102C546.701 662.139 531.161 655.753 519.524 644.126Z" fill="white"/>
</svg>
