<svg width="18" height="30" viewBox="0 0 18 30" fill="none" xmlns="http://www.w3.org/2000/svg">
<path d="M0.478554 16.1706L13.8289 29.5207C14.1377 29.8298 14.5499 30 14.9894 30C15.4289 30 15.8411 29.8298 16.1499 29.5207L17.1331 28.5378C17.7728 27.8973 17.7728 26.8564 17.1331 26.2169L5.92241 15.0062L17.1455 3.78314C17.4543 3.47412 17.6248 3.06217 17.6248 2.6229C17.6248 2.18315 17.4543 1.7712 17.1455 1.46194L16.1623 0.479263C15.8533 0.17024 15.4414 0 15.0019 0C14.5623 0 14.1502 0.17024 13.8414 0.479263L0.478554 13.8416C0.169044 14.1516 -0.000953674 14.5655 2.28882e-05 15.0055C-0.000953674 15.4472 0.169044 15.8608 0.478554 16.1706Z" fill="#484848"/>
</svg>
