<svg width="1003" height="954" viewBox="0 0 1003 954" fill="none" xmlns="http://www.w3.org/2000/svg">
<g clip-path="url(#clip0)">
<path d="M823.881 477.001C804.097 477.001 788.06 492.255 788.06 511.073V851.781C788.06 870.599 772.022 885.853 752.238 885.853H107.463C87.6788 885.853 71.6412 870.599 71.6412 851.781V170.362C71.6412 151.545 87.6788 136.291 107.463 136.291H537.314C557.098 136.291 573.136 121.037 573.136 102.219C573.136 83.4015 557.098 68.1494 537.314 68.1494H107.463C48.1127 68.1494 0 113.912 0 170.362V851.781C0 908.232 48.1127 953.994 107.463 953.994H752.24C811.59 953.994 859.703 908.232 859.703 851.781V511.071C859.703 492.255 843.665 477.001 823.881 477.001Z" fill="white"/>
<path d="M962.846 38.2139C937.127 13.7467 902.241 0.00387056 865.865 0.00786325C829.469 -0.0919541 794.547 13.6748 768.899 38.2359L297.063 486.983C293.149 490.734 290.196 495.293 288.431 500.304L216.79 704.73C210.537 722.583 220.685 741.876 239.455 747.821C243.097 748.975 246.911 749.564 250.747 749.568C254.593 749.562 258.415 748.975 262.067 747.831L476.992 679.69C482.271 678.013 487.067 675.19 490.998 671.445L962.832 222.662C1016.38 171.732 1016.39 89.1507 962.846 38.2139ZM912.181 174.518L446.508 617.442L307.379 661.631L353.696 529.469L819.547 86.5475C845.158 62.236 886.642 62.2759 912.202 86.6353C924.412 98.272 931.292 114.025 931.344 130.465C931.388 146.993 924.489 162.852 912.181 174.518Z" fill="white"/>
</g>
<defs>
<clipPath id="clip0">
<rect width="1003" height="954" fill="white"/>
</clipPath>
</defs>
</svg>
