<svg width="457" height="395" viewBox="0 0 457 395" fill="none" xmlns="http://www.w3.org/2000/svg">
<path d="M224.991 125.338L290.22 190.556L290.531 187.14C290.531 152.874 262.679 125.027 228.408 125.027L224.991 125.338Z" fill="#6C757D"/>
<path d="M228.408 83.619C285.561 83.619 331.946 129.997 331.946 187.141C331.946 200.495 329.255 213.229 324.596 224.926L385.166 285.486C416.434 259.399 441.076 225.651 456.296 187.141C420.369 96.2493 332.05 31.8585 228.409 31.8585C199.418 31.8585 171.67 37.0342 145.889 46.3512L190.618 90.9687C202.316 86.4141 215.051 83.619 228.408 83.619Z" fill="#6C757D"/>
<path d="M21.3304 27.199L68.5439 74.4049L77.9662 83.8257C43.7986 110.534 16.7751 146.043 0.623108 187.14C36.4477 278.032 124.869 342.423 228.408 342.423C260.505 342.423 291.152 336.211 319.211 324.927L328.012 333.727L388.375 394.183L414.778 367.889L47.7327 0.800934L21.3304 27.199ZM135.844 141.591L167.838 173.579C166.906 178.031 166.285 182.482 166.285 187.14C166.285 221.406 194.136 249.253 228.408 249.253C233.067 249.253 237.519 248.632 241.868 247.7L273.861 279.689C260.09 286.521 244.767 290.662 228.408 290.662C171.255 290.662 124.869 244.284 124.869 187.14C124.869 170.784 129.011 155.462 135.844 141.591Z" fill="#6C757D"/>
</svg>
