<svg width="474" height="323" viewBox="0 0 474 323" fill="none" xmlns="http://www.w3.org/2000/svg">
<path d="M236.924 97.0817C201.32 97.0817 172.386 126.011 172.386 161.609C172.386 197.207 201.32 226.136 236.924 226.136C272.527 226.136 301.461 197.207 301.461 161.609C301.461 126.011 272.526 97.0817 236.924 97.0817Z" fill="#6C757D"/>
<path d="M236.924 0.290894C129.361 0.290894 37.5027 67.1834 0.285767 161.609C37.5027 256.033 129.361 322.927 236.924 322.927C344.593 322.927 436.344 256.033 473.561 161.609C436.344 67.1834 344.593 0.290894 236.924 0.290894ZM236.924 269.154C177.549 269.154 129.361 220.973 129.361 161.608C129.361 102.243 177.549 54.0632 236.924 54.0632C296.298 54.0632 344.486 102.244 344.486 161.609C344.486 220.974 296.298 269.154 236.924 269.154Z" fill="#6C757D"/>
</svg>
