<svg width="20" height="20" viewBox="0 0 20 20" fill="none" xmlns="http://www.w3.org/2000/svg">
<path d="M16.3942 0.230111C16.2242 0.0612358 15.9495 0.0612358 15.7794 0.230111L0.127377 15.7742C0.0456433 15.855 0 15.965 0 16.0795V19.5337C0 19.772 0.194886 19.9655 0.434779 19.9655H3.91301C4.02829 19.9655 4.13911 19.92 4.22041 19.8388L19.8725 4.29471C20.0425 4.12604 20.0425 3.85302 19.8725 3.68435L16.3942 0.230111ZM4.78257 18.0596L3.65826 16.9431L15.2173 5.46355L16.3416 6.58032L4.78257 18.0596ZM3.04345 16.3325L1.91914 15.2159L13.4782 3.73643L14.6025 4.8532L3.04345 16.3325ZM3.73299 19.102H0.869558V16.2581L1.30434 15.8263L4.16777 18.6702L3.73299 19.102ZM16.9564 5.96976L14.093 3.12608L16.0868 1.14575L18.9503 3.98964L16.9564 5.96976Z" fill="#484848"/>
</svg>
