<svg xmlns="http://www.w3.org/2000/svg" width="1189" height="529" fill="none" viewBox="0 0 1189 529"><path fill="#fff" d="M83.7881 528.965C108.028 507.895 93.8881 479.561 83.7881 468.028H1075.58C1095.73 488.684 1083.98 517.259 1075.58 528.965H83.7881Z"/><path fill="#fff" d="M1098.13 520.078C1109.64 502.474 1102.93 481.992 1098.13 473.952L1140.87 488.34V503.997L1098.13 520.078Z"/><path fill="#fff" d="M1148.49 502.728V489.609L1165.41 495.957L1148.49 502.728Z"/><path fill="#fff" d="M58.821 468.028C99.0504 495.111 75.776 519.231 58.821 528.964H33.8539L13.9648 468.028H58.821Z"/><path fill="#fff" d="M365.236 11.5432C540.259 -35.5135 598.121 72.621 605.174 132.57C835.718 91.2687 900.407 214.948 903.933 281.95C1178.49 281.95 1204.53 395.924 1183.23 452.911H7.65597C-40.7549 270.778 152.239 263.048 254.788 281.95C177.94 123.853 296.4 35.805 365.236 11.5432Z"/></svg>