<svg xmlns="http://www.w3.org/2000/svg" width="616" height="189" fill="none" viewBox="0 0 616 189"><path fill="#fff" d="M76.2388 108.271C76.2388 119.292 72.8392 128.226 66.0401 135.072C59.2213 141.898 50.3233 145.312 39.3462 145.312C27.6202 145.312 18.7912 141.325 12.8592 133.351C7.06517 125.12 3.46853 116.76 2.0693 108.271C0.689766 99.2883 0 92.0069 0 86.4271C0 80.8671 0.216784 75.2973 0.65035 69.7175C1.10362 64.1575 1.89193 57.9841 3.01526 51.1974C4.1583 44.4304 5.83344 38.2274 8.04069 32.5883C10.2479 26.9491 12.9282 21.6958 16.0814 16.8284C19.2346 11.9411 23.3042 8.11244 28.2902 5.34233C33.2763 2.55245 38.1933 1.1575 43.0414 1.1575C47.8894 1.1575 51.4171 1.47409 53.6243 2.10725C55.8316 2.74042 57.4082 3.057 58.3542 3.057C59.3001 3.057 60.8767 2.55245 63.084 1.54334C65.2912 0.514449 68.0109 0 71.2429 0C74.4553 0 76.0614 1.33558 76.0614 4.00675C76.0614 4.12547 75.5589 6.87578 74.5538 12.2577C73.529 17.6396 73.0166 23.1501 73.0166 28.7893C73.0166 34.4284 73.529 38.168 74.5538 40.0082C75.5589 41.8285 76.0614 43.5697 76.0614 45.2318C76.0614 48.3976 74.6129 50.861 71.7159 52.622C68.7992 54.4028 65.646 55.2932 62.2563 55.2932C53.4273 55.2932 49.0128 50.7324 49.0128 41.6109C49.0128 39.5927 49.3872 36.872 50.1361 33.449C50.885 30.0259 51.2594 27.8098 51.2594 26.8007C51.2594 24.1296 49.8109 22.794 46.9139 22.794C42.8738 22.794 38.8436 26.4742 34.8233 33.8348C30.1526 42.3034 27.8173 54.7095 27.8173 71.0531C27.8173 78.1366 28.576 84.4683 30.0935 90.048C32.9905 100.555 37.7794 105.808 44.4603 105.808C50.2543 105.808 54.728 102.642 57.8812 96.3105C59.2804 93.2831 61.6158 91.7695 64.8872 91.7695C68.1784 91.7695 70.8882 93.5997 73.0166 97.2602C75.1647 100.94 76.2388 104.611 76.2388 108.271ZM110.678 7.03407C110.678 14.5133 110.264 24.1691 109.436 36.0014C108.628 47.8535 108.224 60.4871 108.224 73.9023C108.224 87.3175 108.382 98.4969 108.697 107.44C109.013 116.364 111.19 122.28 115.23 125.189C117.359 126.455 118.423 128.414 118.423 131.065C118.423 133.736 116.787 136.21 113.516 138.485C107.465 142.66 100.656 144.748 93.0888 144.748C87.9057 144.748 84.6835 142.601 83.4222 138.307C83.0478 136.526 82.8605 134.399 82.8605 131.926C82.8605 129.453 82.9591 126.633 83.1562 123.467C83.3335 120.302 83.5503 116.186 83.8065 111.121C84.9495 88.3266 85.5211 70.321 85.5211 57.1036C85.5211 43.8665 85.3338 35.853 84.9594 33.0631C84.447 28.5122 82.8704 25.2871 80.2296 23.3876L78.8993 22.4378C77.2636 21.2902 76.4457 19.7666 76.4457 17.8671C76.4457 13.6922 80.0029 9.70524 87.1174 5.90624C94.2515 2.10725 99.8386 0.207757 103.879 0.207757C108.411 0.207757 110.678 2.48319 110.678 7.03407ZM157.414 46.5377C168.391 46.5377 176.747 51.3557 182.482 60.9917C188.217 70.6079 191.085 82.3808 191.085 96.3105C191.085 114.672 185.852 128.602 175.388 138.099C169.574 143.303 163.139 145.905 156.084 145.905C149.029 145.905 143.195 144.441 138.584 141.513C133.972 138.604 130.474 134.746 128.089 129.937C123.163 120.559 120.699 110.557 120.699 99.9314C120.699 87.5253 123.537 75.8711 129.213 64.9687C131.992 59.5275 135.844 55.0953 140.771 51.6723C145.678 48.2492 151.226 46.5377 157.414 46.5377ZM168.382 87.0207C168.382 83.2217 167.623 79.7987 166.105 76.7516C164.588 73.7045 162.095 72.1809 158.626 72.1809C155.158 72.1809 151.817 74.6245 148.605 79.5118C145.393 84.3792 143.787 90.2954 143.787 97.2602C143.787 107.015 146.999 111.892 153.424 111.892C156.971 111.892 160.351 109.676 163.563 105.244C166.775 100.812 168.382 94.7374 168.382 87.0207ZM198.268 114.356L198.83 83.5779C198.83 79.9174 198.515 76.7219 197.884 73.9914C197.253 71.2806 196.278 69.1338 194.957 67.5509C193.637 65.968 192.977 64.2861 192.977 62.5053C192.977 58.5876 196.13 54.9469 202.436 51.5832C208.743 48.2195 213.601 46.5377 217.01 46.5377C220.419 46.5377 222.715 47.2401 223.898 48.6449C225.1 50.03 225.701 52.5627 225.701 56.2429C225.701 59.9034 225.386 65.691 224.755 73.6055C224.124 81.5201 223.809 86.3084 223.809 87.9705C223.809 101.762 226.775 108.657 232.707 108.657C237.003 108.657 239.9 104.166 241.398 95.1826C242.029 91.8783 242.344 88.2079 242.344 84.1715C242.344 76.059 241.654 70.044 240.275 66.1263C238.895 64.3455 238.206 62.634 238.206 60.9917C238.206 57.1927 241.043 53.9972 246.719 51.4052C252.395 48.7933 257.401 47.4874 261.736 47.4874C266.092 47.4874 268.269 49.6738 268.269 54.0466C268.269 58.4194 267.865 65.226 267.057 74.4662C266.23 83.7065 265.816 91.0176 265.816 96.3995C265.816 101.781 265.875 105.58 265.993 107.796C266.131 110.013 266.801 113.307 268.003 117.68C269.186 122.053 270.792 124.872 272.822 126.139C274.97 127.148 276.044 128.513 276.044 130.234C276.044 131.936 275.532 133.479 274.507 134.864C269.856 141.334 262.485 144.57 252.395 144.57C246.719 144.194 243.497 142.037 242.728 138.099L241.398 131.659C241.28 130.769 240.906 130.323 240.275 130.323L238.767 131.065C234.215 139.692 227.278 144.006 217.956 144.006C204.831 143.748 198.268 133.865 198.268 114.356ZM348.676 97.8241V101.445L348.883 106.016V106.758C348.883 113.465 350.894 118.214 354.914 121.004C356.806 122.527 357.752 124.18 357.752 125.96C357.752 127.721 357.318 129.235 356.451 130.501C353.672 134.558 350.204 137.793 346.045 140.207C340.488 143.491 335.63 145.133 331.472 145.133C327.313 145.133 325.037 143.105 324.643 139.049C324.407 135.883 323.776 134.3 322.751 134.3L321.45 135.072C317.154 141.028 311.478 144.006 304.423 144.006C299.24 144.006 294.786 142.67 291.061 139.999C287.356 137.348 284.558 133.736 282.666 129.166C279 120.559 277.167 110.873 277.167 100.109C277.167 88.5938 280.064 77.5133 285.859 66.8682C288.775 61.8029 292.687 57.6577 297.594 54.4325C302.521 51.2073 307.951 49.5947 313.883 49.5947C316.642 49.5947 318.908 49.9706 320.682 50.7225L323.342 51.88C324.209 51.88 324.742 50.861 324.939 48.823C325.136 46.8048 325.234 44.1831 325.234 40.9579C325.234 37.7129 325.106 35.0517 324.85 32.9741C324.594 30.8767 324.278 29.3235 323.904 28.3144C323.53 27.3053 323.086 26.4841 322.574 25.851C321.825 24.8419 320.564 23.7635 318.79 22.6159C317.154 21.4683 316.336 19.8854 316.336 17.8671C316.336 13.6922 319.894 9.70524 327.008 5.90624C334.142 2.10725 340.045 0.207757 344.715 0.207757C348.243 0.207757 350.194 1.79067 350.568 4.9565C350.825 6.22283 350.953 8.7555 350.953 12.5545C350.953 16.3535 350.539 24.0801 349.711 35.7343C348.903 47.3687 348.499 58.5085 348.499 69.1536V88.1486L348.676 97.8241ZM309.33 110.171C314.001 110.171 317.755 107.519 320.593 102.217C323.431 96.8942 324.85 92.1454 324.85 87.9705C324.85 78.0773 322.14 73.1307 316.721 73.1307C312.306 73.1307 308.611 75.9502 305.635 81.5894C302.679 87.2285 301.201 92.5807 301.201 97.646C301.201 105.501 303.911 109.676 309.33 110.171ZM365.911 98.0319L365.319 79.215C365.319 77.1968 364.847 75.2973 363.901 73.5165C362.955 71.7555 361.733 70.1726 360.235 68.7677C358.717 67.3827 357.959 65.869 357.959 64.2268C357.959 59.9133 361.24 56.0747 367.803 52.7111C374.346 49.3671 379.864 47.6952 384.357 47.6952C388.831 47.6952 391.127 49.9706 391.245 54.5215C391.245 57.6873 390.959 63.3562 390.388 71.5279C389.836 79.6997 389.56 87.2681 389.56 94.2329C389.56 111.071 391.067 121.647 394.083 125.96C395.856 126.97 396.743 128.552 396.743 130.709C396.743 134.884 394.437 138.169 389.826 140.563C385.234 142.977 380.031 144.184 374.217 144.184C366.532 144.184 362.689 141.592 362.689 136.408C362.689 136.15 362.876 134.686 363.25 132.015C365.024 121.884 365.911 110.557 365.911 98.0319ZM393.137 18.8169C393.137 23.5063 390.9 27.2756 386.426 30.1248C381.953 32.9741 377.637 34.3987 373.478 34.3987C369.3 34.3987 366.049 33.6072 363.723 32.0243C361.398 30.4414 360.235 28.3144 360.235 25.6432C360.235 20.8351 362.501 16.9471 367.034 13.9791C371.567 10.9914 375.883 9.49749 379.982 9.49749C384.081 9.49749 387.303 10.3285 389.648 11.9906C391.974 13.6328 393.137 15.9083 393.137 18.8169ZM424.738 110.557C424.738 115.879 426.63 118.541 430.414 118.541C434.198 118.541 437.252 116.582 439.578 112.664C441.923 108.726 443.095 105.244 443.095 102.217C443.095 96.5182 441.075 93.669 437.035 93.669C433.37 93.669 430.404 95.4992 428.137 99.1597C425.871 102.84 424.738 106.639 424.738 110.557ZM465.414 80.3725L464.853 106.758C464.853 117.264 466.173 123.349 468.814 125.011C470.45 126.277 471.267 127.919 471.267 129.937C471.267 133.618 468.843 137.041 463.995 140.207C459.147 143.372 454.201 144.955 449.156 144.955C446.633 144.955 444.741 144.411 443.48 143.323C442.218 142.255 441.588 141.087 441.588 139.821C441.588 136.398 441.144 134.686 440.258 134.686C440.12 134.686 439.331 135.418 437.893 136.883C436.434 138.327 434.286 139.781 431.448 141.245C428.61 142.69 425.014 143.412 420.658 143.412C416.323 143.412 412.48 142.344 409.129 140.207C405.779 138.05 403.473 135.26 402.212 131.837C399.946 126.139 398.813 120.816 398.813 115.869C398.813 110.943 399.571 106.322 401.089 102.009C402.606 97.7153 404.498 94.2329 406.765 91.5617C409.031 88.9103 411.682 86.536 414.717 84.4386C417.732 82.361 420.57 80.8474 423.23 79.8976C425.871 78.9479 428.581 78.1564 431.36 77.5232C435.262 76.7516 437.971 76.3657 439.489 76.3657L441.381 73.9023C441.263 69.5889 438.139 67.4322 432.01 67.4322C425.901 67.4322 420.895 68.6391 416.993 71.0531C415.475 72.0622 413.958 72.5667 412.44 72.5667C409.405 72.5667 407.888 70.2913 407.888 65.7404C407.888 53.9675 417.229 48.081 435.912 48.081C450.279 48.081 459.295 52.8891 462.961 62.5053C464.596 66.8188 465.414 72.7745 465.414 80.3725ZM504.021 126.702L504.376 131.451C504.376 135.626 502.928 138.733 500.031 140.771C495.123 144.194 488.886 145.905 481.318 145.905C476.51 145.905 474.105 143.808 474.105 139.613L474.697 136.408C477.712 121.449 479.219 103.147 479.219 81.5003C479.219 74.9114 477.268 70.222 473.366 67.4322C471.967 66.5616 471.267 65.1073 471.267 63.0692C471.267 59.1515 474.391 55.3229 480.638 51.5832C486.886 47.8436 491.901 45.9738 495.685 45.9738C499.469 45.9738 501.617 48.0612 502.13 52.2362C502.622 55.1646 502.869 57.351 502.869 58.7954C502.869 60.2596 503.371 60.9917 504.376 60.9917C505.007 60.9917 505.48 60.7048 505.795 60.131C506.11 59.5572 506.426 58.9834 506.741 58.4095C507.056 57.8555 507.786 56.8464 508.929 55.3822C510.072 53.918 511.274 52.6814 512.535 51.6723C515.807 48.7637 519.462 47.3094 523.502 47.3094C526.143 47.3094 528.794 48.1305 531.454 49.7728C536.362 52.8199 538.815 58.835 538.815 67.818C538.815 73.5165 537.682 78.4532 535.416 82.6281C533.149 86.8229 529.494 88.9202 524.448 88.9202C518.142 88.9202 514.989 85.4378 514.989 78.473L515.166 75.6237C515.166 73.467 514.289 72.3887 512.535 72.3887C505.835 72.3887 502.484 82.0741 502.484 101.445C502.484 106.51 502.997 114.929 504.021 126.702ZM545.821 114.178L546.383 82.6281C546.383 76.6922 545.407 72.1413 543.456 68.9755C541.505 65.8097 540.53 63.5936 540.53 62.3273C540.53 58.647 543.9 55.0953 550.64 51.6723C557.399 48.2492 562.543 46.5377 566.071 46.5377C570.86 46.5377 573.254 49.6442 573.254 55.8571C573.254 60.408 572.939 65.8196 572.308 72.0919C571.678 78.3642 571.362 84.1616 571.362 89.4841C571.362 100.881 573.944 106.58 579.107 106.58H579.876C586.182 106.58 589.336 97.4581 589.336 79.215C589.336 74.0309 588.577 69.668 587.059 66.1263C585.68 64.3455 584.99 62.634 584.99 60.9917C584.99 57.3114 587.956 54.1456 593.888 51.4942C599.8 48.823 604.964 47.4874 609.378 47.4874C613.793 47.4874 616 49.6442 616 53.9576C616 58.5085 615.685 63.0693 615.054 67.6399C613.931 77.5133 613.369 89.1577 613.369 102.573L613.931 126.317C613.931 140.128 613.014 151.02 611.181 158.994C609.349 166.968 605.318 173.962 599.091 179.977C592.844 185.992 585.305 189 576.476 189C571.293 189 566.751 187.546 562.849 184.637C558.946 181.728 556.995 177.613 556.995 172.29C556.995 169.263 557.843 166.859 559.538 165.078C561.233 163.297 562.967 162.288 564.741 162.051L567.194 161.665C574.506 161.527 579.807 158.608 583.098 152.91C586.37 147.211 588.005 139.811 588.005 130.709C588.005 128.552 587.69 127.474 587.059 127.474L585.374 128.216C580.704 136.843 574.013 141.156 565.302 141.156C552.315 141.156 545.821 132.163 545.821 114.178Z"/></svg>