<svg width="955" height="673" viewBox="0 0 955 673" fill="none" xmlns="http://www.w3.org/2000/svg">
<path d="M391.798 582.535L67.7106 232.605C8.4262 268.245 -32.0848 384.705 34.1161 502.011C87.0768 595.856 260.385 598.11 340.419 587.506L424.405 673C510.565 539.39 596.659 516.592 628.936 521.894C594.156 521.894 549.231 564.972 531.117 586.512C720.036 595.26 809.424 582.866 830.503 575.576C927.729 535.016 954.012 432.754 955 386.693C949.467 275.352 869.696 213.716 830.503 196.816C832.874 171.367 809.095 125.24 796.908 105.357C743.157 181.706 722.474 238.569 718.851 257.458C673.794 222.465 582.167 261.434 541.986 285.293L538.033 283.305L536.057 279.328L632.888 185.881L656.602 181.905C657.261 175.608 657.392 161.028 652.65 153.075C647.907 145.122 630.253 152.412 622.019 157.052V179.916L526.176 273.364L523.212 271.375V267.399C576.963 182.302 568.005 113.31 556.807 89.4514C592.377 88.6561 662.53 40.0768 693.161 15.8865C508.984 -45.3513 407.608 85.1435 379.942 158.046C435.274 214.048 558.19 338.18 607.198 386.693C656.207 435.206 666.483 477.158 665.495 492.07C607.791 344.94 463.598 407.57 398.715 457.276L140.828 189.858L94.3885 213.716L398.715 525.87C565.502 381.126 640.134 457.607 656.602 513.941C606.803 401.804 459.317 512.947 391.798 582.535Z" fill="white"/>
</svg>
