<svg width="728" height="159" viewBox="0 0 728 159" fill="none" xmlns="http://www.w3.org/2000/svg">
<path d="M669.328 121.864L638 34H664.853C674.003 85.4925 680.6 95.6411 682.755 94.2789L701.154 34H727.509C718.227 60.7339 693.993 122.784 689.219 138.722L684.744 149.96C684.744 149.96 681.263 158.134 671.317 158.134H651.426V140.765C672.511 140.765 672.146 128.164 669.328 121.864Z" fill="#70B5DA"/>
<path d="M573 65.6996V124.957H598.858V70.808C598.858 58.9565 615.766 58.3776 624.219 59.5696C624.551 50.715 625.015 33.2103 624.219 34.0277C588.018 34.0277 574.989 55.1423 573 65.6996Z" fill="#70B5DA"/>
<path fill-rule="evenodd" clip-rule="evenodd" d="M488.604 56.6424C489.433 48.1285 497.853 31.1005 524.905 31.1005C551.956 31.1005 562.035 48.1285 563.692 56.6424V103.129C561.869 111.302 551.559 127.649 524.905 127.649C498.251 127.649 487.112 111.813 485.123 103.129C481.94 79.0171 502.362 71.4567 512.97 70.435C537.336 70.435 545.293 64.305 539.823 56.6424C527.491 43.9736 516.783 51.3638 512.97 56.6424H488.604ZM540.818 80.1409C531.038 82.014 510.882 87.0883 508.495 92.401C506.34 97.6797 505.81 108.237 520.927 108.237C539.823 108.237 541.813 80.1409 540.818 80.1409Z" fill="#70B5DA"/>
<path d="M450.492 127.536V36.0961H469.388C473.764 38.9568 474.858 43.0775 474.858 44.7803V127.536H450.492Z" fill="#70B5DA"/>
<path d="M449.994 8V27.9227H475.355C475.521 25.8793 475.753 20.5666 475.355 15.6626C474.958 10.7585 472.538 8.51084 471.377 8H449.994Z" fill="#70B5DA"/>
<path fill-rule="evenodd" clip-rule="evenodd" d="M411.154 45.2533C408.667 40.6558 399.915 31.4607 384.798 31.4607C365.902 31.4607 348 57.5134 348 78.4578C348 99.4021 361.924 123.412 381.317 126.779C398.722 129.801 410.656 124.433 410.656 124.433C410.656 124.433 434.028 115.749 434.028 100.935V13.0705C433.697 11.538 431.94 8.26864 427.564 7.4513C423.188 6.63396 414.8 7.11074 411.154 7.4513V45.2533ZM390.766 53.4267C384.301 53.4267 372.864 54.3462 372.864 78.4578C372.864 107.166 385.002 107.099 390.732 107.067C390.916 107.066 391.093 107.065 391.263 107.065C398.722 107.065 408.667 103.489 408.667 78.4578C408.667 53.4267 396.733 53.4267 390.766 53.4267Z" fill="#70B5DA"/>
<path d="M256 106.028V34H279.372V97.3439C279.703 101.26 283.45 109.093 295.782 109.093C308.114 109.093 311.197 101.26 311.197 97.3439V42.1734C314.778 36.452 318.656 34.3406 320.148 34H334.569V106.028C330.757 113.35 317.364 127.994 294.29 127.994C271.217 127.994 259.149 113.35 256 106.028Z" fill="#70B5DA"/>
<path fill-rule="evenodd" clip-rule="evenodd" d="M200.771 30.0338C186.847 29.3527 159 38.718 159 81.6284C159 107.17 178.394 127.604 200.771 127.604C219.667 127.604 244.034 115.344 244.034 81.6284C244.034 39.944 215.192 29.8635 200.771 30.0338ZM200.771 52.5107C194.306 52.5107 182.869 53.4302 182.869 77.5417C182.869 106.25 195.008 106.183 200.738 106.151C200.921 106.15 201.098 106.149 201.268 106.149C208.727 106.149 218.673 102.573 218.673 77.5417C218.673 52.5107 206.738 52.5107 200.771 52.5107Z" fill="#70B5DA"/>
<path d="M122 128.069V7H142.388C147.958 9.45202 148.687 14.1517 148.355 16.1951V128.069H122Z" fill="#70B5DA"/>
<path d="M59.441 0.00439954C100.019 0.41307 109.168 28.1005 108.671 41.8931H84.8017C82.481 35.2522 74.1601 21.9705 59.441 21.9705C24.0962 21.9705 23.1653 60.7941 27.1179 80.206C29.2728 88.3794 38.7542 104.726 59.441 104.726C80.1278 104.726 84.9676 88.3794 84.8017 80.206H108.671V83.7818C106.185 109.324 91.7635 121.073 74.8562 125.16C57.9489 129.246 46.5116 128.736 33.5825 123.116C20.6534 117.497 5.73544 104.726 1.75725 83.7818C-1.4253 67.0264 0.431188 48.8746 1.75725 41.8931C4.07786 27.7599 18.8635 -0.404271 59.441 0.00439954Z" fill="#70B5DA"/>
</svg>
