<svg width="18" height="30" viewBox="0 0 18 30" fill="none" xmlns="http://www.w3.org/2000/svg">
<path d="M17.1462 13.8294L3.79582 0.479264C3.48704 0.170243 3.07485 0 2.63534 0C2.19584 0 1.78364 0.170243 1.47487 0.479264L0.491703 1.46218C-0.148047 2.10267 -0.148047 3.14363 0.491703 3.78314L11.7023 14.9938L0.479264 26.2169C0.170486 26.5259 0 26.9378 0 27.3771C0 27.8168 0.170486 28.2288 0.479264 28.5381L1.46243 29.5207C1.77145 29.8298 2.1834 30 2.62291 30C3.06241 30 3.47461 29.8298 3.78338 29.5207L17.1462 16.1584C17.4557 15.8484 17.6257 15.4345 17.6247 14.9945C17.6257 14.5528 17.4557 14.1392 17.1462 13.8294Z" fill="#484848"/>
</svg>
