<svg width="14" height="20" viewBox="0 0 14 20" fill="none" xmlns="http://www.w3.org/2000/svg">
<path d="M12.4516 19.2125V4.04003C12.4516 3.63957 12.1236 3.3139 11.7204 3.3139H1.80637C1.40313 3.3139 1.0752 3.63961 1.0752 4.04003V19.2463C1.0752 19.6467 1.40317 19.9724 1.80637 19.9724H11.7419C11.9382 19.9724 12.1288 19.8876 12.2649 19.7396C12.397 19.5961 12.4645 19.4048 12.4516 19.2125ZM11.7888 19.3078C11.7752 19.3223 11.7567 19.3317 11.7419 19.3317H1.80637C1.74766 19.3317 1.72035 19.2807 1.72035 19.2463V4.04003C1.72035 3.98173 1.77176 3.95461 1.80637 3.95461H11.7204C11.7791 3.95461 11.8064 4.00566 11.8064 4.04003V19.2249C11.8064 19.2345 11.8068 19.2443 11.8079 19.254C11.8098 19.2738 11.8032 19.292 11.7888 19.3078Z" fill="#484848"/>
<path d="M12.1505 1.17819H1.39785C0.613984 1.17819 0 1.78794 0 2.56641C0 3.34487 0.613984 3.95462 1.39785 3.95462H12.1505C12.9344 3.95462 13.5484 3.34487 13.5484 2.56641C13.5484 1.78794 12.9344 1.17819 12.1505 1.17819ZM12.1505 3.31391H1.39785C0.975898 3.31391 0.645156 2.98545 0.645156 2.56641C0.645156 2.14736 0.975898 1.8189 1.39785 1.8189H12.1505C12.5727 1.8189 12.9032 2.14736 12.9032 2.56641C12.9032 2.98545 12.5727 3.31391 12.1505 3.31391Z" fill="#484848"/>
<path d="M3.54819 5.44958C3.36989 5.44958 3.22559 5.59289 3.22559 5.76994V17.5163C3.22559 17.6932 3.36989 17.8367 3.54819 17.8367C3.72648 17.8367 3.87079 17.6932 3.87079 17.5163V5.76994C3.87079 5.59289 3.72648 5.44958 3.54819 5.44958Z" fill="#484848"/>
<path d="M5.69904 5.44958C5.52076 5.44958 5.37646 5.59289 5.37646 5.76994V17.5163C5.37646 17.6932 5.52076 17.8367 5.69904 17.8367C5.87731 17.8367 6.02161 17.6932 6.02161 17.5163V5.76994C6.02161 5.59289 5.87731 5.44958 5.69904 5.44958Z" fill="#484848"/>
<path d="M7.84943 5.44958C7.67138 5.44958 7.52686 5.59289 7.52686 5.76994V17.5163C7.52686 17.6932 7.67138 17.8367 7.84943 17.8367C8.02747 17.8367 8.172 17.6932 8.172 17.5163V5.76994C8.172 5.59289 8.02747 5.44958 7.84943 5.44958Z" fill="#484848"/>
<path d="M9.99982 5.44958C9.82177 5.44958 9.67725 5.59289 9.67725 5.76994V17.5163C9.67725 17.6932 9.82177 17.8367 9.99982 17.8367C10.1779 17.8367 10.3224 17.6932 10.3224 17.5163V5.76994C10.3224 5.59289 10.1779 5.44958 9.99982 5.44958Z" fill="#484848"/>
<path d="M6.77432 0.110352C5.99045 0.110352 5.37646 0.720099 5.37646 1.49856C5.37646 1.67561 5.52076 1.81891 5.69904 1.81891C5.87733 1.81891 6.02162 1.67561 6.02162 1.49856C6.02162 1.07952 6.35237 0.751056 6.77432 0.751056C7.19647 0.751056 7.52702 1.07952 7.52702 1.49856C7.52702 1.67561 7.67155 1.81891 7.8496 1.81891C8.02765 1.81891 8.17218 1.67561 8.17218 1.49856C8.17218 0.720099 7.55819 0.110352 6.77432 0.110352Z" fill="#484848"/>
</svg>
