<svg width="1127" height="663" viewBox="0 0 1127 663" fill="none" xmlns="http://www.w3.org/2000/svg">
<path d="M607.476 18.8744L1109 520.404C1120.6 532.003 1127 547.488 1127 563.999C1127 580.51 1120.6 595.994 1109 607.594L1072.07 644.528C1048.01 668.562 1008.9 668.562 984.88 644.528L563.734 223.382L142.12 644.996C130.511 656.595 115.036 663 98.5338 663C82.0138 663 66.5382 656.595 54.9202 644.996L18.0043 608.061C6.39542 596.453 1.11309e-05 580.977 1.11309e-05 564.466C1.11309e-05 547.955 6.39542 532.471 18.0043 520.871L519.983 18.8744C531.628 7.24714 547.177 0.860877 563.706 0.897527C580.299 0.860877 595.839 7.24714 607.476 18.8744Z" fill="white"/>
</svg>
