<svg width="17" height="11" viewBox="0 0 17 11" fill="none" xmlns="http://www.w3.org/2000/svg">
<path d="M8.05458 0.759447L0.669421 8.09381C0.498473 8.26344 0.404297 8.48989 0.404297 8.73135C0.404297 8.9728 0.498473 9.19925 0.669421 9.36888L1.21316 9.90901C1.56747 10.2605 2.14332 10.2605 2.49709 9.90901L8.69871 3.75016L14.9072 9.91584C15.0782 10.0855 15.306 10.1791 15.549 10.1791C15.7923 10.1791 16.0202 10.0855 16.1913 9.91584L16.7349 9.37572C16.9058 9.20595 17 8.97963 17 8.73818C17 8.49672 16.9058 8.27028 16.7349 8.10064L9.34297 0.759447C9.17148 0.58941 8.94251 0.496017 8.69911 0.496553C8.45477 0.496017 8.22594 0.58941 8.05458 0.759447Z" fill="#484848"/>
</svg>
