<svg width="940" height="940" viewBox="0 0 940 940" fill="none" xmlns="http://www.w3.org/2000/svg">
<path d="M470 0C210.846 0 0 210.846 0 470C0 729.154 210.846 940 470 940C729.174 940 940 729.154 940 470C940 210.846 729.174 0 470 0ZM470 899.13C233.365 899.13 40.8696 706.635 40.8696 470C40.8696 233.365 233.365 40.8696 470 40.8696C706.614 40.8696 899.13 233.365 899.13 470C899.13 706.635 706.614 899.13 470 899.13Z" fill="black"/>
<path d="M367.826 388.261C367.826 354.462 340.321 326.957 306.522 326.957C272.723 326.957 245.217 354.462 245.217 388.261C245.217 422.06 272.723 449.565 306.522 449.565C340.321 449.565 367.826 422.06 367.826 388.261ZM286.087 388.261C286.087 377.001 295.262 367.826 306.522 367.826C317.781 367.826 326.956 377.001 326.956 388.261C326.956 399.52 317.781 408.696 306.522 408.696C295.262 408.696 286.087 399.52 286.087 388.261Z" fill="black"/>
<path d="M633.478 326.957C599.679 326.957 572.174 354.462 572.174 388.261C572.174 422.06 599.679 449.565 633.478 449.565C667.277 449.565 694.783 422.06 694.783 388.261C694.783 354.462 667.277 326.957 633.478 326.957ZM633.478 408.696C622.198 408.696 613.043 399.52 613.043 388.261C613.043 377.001 622.198 367.826 633.478 367.826C644.758 367.826 653.913 377.001 653.913 388.261C653.913 399.52 644.758 408.696 633.478 408.696Z" fill="black"/>
<path d="M470 572.174C393.819 572.174 321.235 604.44 270.863 660.718C263.343 669.137 264.058 682.052 272.457 689.572C280.876 697.112 293.791 696.376 301.311 687.978C343.938 640.344 405.426 613.043 470 613.043C534.574 613.043 596.062 640.344 638.689 687.978C642.715 692.494 648.314 694.783 653.913 694.783C658.756 694.783 663.66 693.066 667.543 689.572C675.942 682.052 676.657 669.137 669.137 660.718C618.765 604.461 546.201 572.174 470 572.174Z" fill="black"/>
</svg>
