<svg width="1060" height="1060" viewBox="0 0 1060 1060" fill="none" xmlns="http://www.w3.org/2000/svg">
<g filter="url(#filter0_d)">
<path d="M530 0C239.945 0 4 235.968 4 526C4 816.032 239.945 1052 530 1052C820.055 1052 1056 816.032 1056 526C1056 235.968 820.055 0 530 0ZM530 1006.26C265.193 1006.26 49.7391 790.83 49.7391 526C49.7391 261.17 265.193 45.7391 530 45.7391C794.807 45.7391 1010.26 261.17 1010.26 526C1010.26 790.83 794.807 1006.26 530 1006.26Z" fill="black"/>
<path d="M850.174 503.13H209.826C197.179 503.13 186.957 513.376 186.957 526C186.957 715.154 340.846 869.043 530 869.043C719.154 869.043 873.043 715.154 873.043 526C873.043 513.376 862.821 503.13 850.174 503.13ZM530 823.304C373.755 823.304 245.297 702.164 233.565 548.869H826.435C814.703 702.164 686.245 823.304 530 823.304Z" fill="black"/>
<path d="M621.479 411.652H758.696C771.343 411.652 781.566 401.407 781.566 388.783C781.566 376.159 771.343 365.913 758.696 365.913H664.199L731.984 264.258C739.005 253.761 736.17 239.536 725.65 232.538C715.084 225.517 700.905 228.376 693.929 238.873L602.451 376.09C597.786 383.111 597.328 392.122 601.308 399.554C605.287 406.987 613.04 411.652 621.479 411.652Z" fill="black"/>
<path d="M301.304 411.652H438.522C446.96 411.652 454.713 407.01 458.692 399.577C462.672 392.145 462.214 383.111 457.549 376.113L366.071 238.896C359.073 228.399 344.871 225.54 334.351 232.561C323.831 239.559 320.995 253.761 328.016 264.281L395.801 365.913H301.304C288.657 365.913 278.435 376.159 278.435 388.783C278.435 401.407 288.657 411.652 301.304 411.652Z" fill="black"/>
</g>
<defs>
<filter id="filter0_d" x="0" y="0" width="1060" height="1060" filterUnits="userSpaceOnUse" color-interpolation-filters="sRGB">
<feFlood flood-opacity="0" result="BackgroundImageFix"/>
<feColorMatrix in="SourceAlpha" type="matrix" values="0 0 0 0 0 0 0 0 0 0 0 0 0 0 0 0 0 0 127 0"/>
<feOffset dy="4"/>
<feGaussianBlur stdDeviation="2"/>
<feColorMatrix type="matrix" values="0 0 0 0 0 0 0 0 0 0 0 0 0 0 0 0 0 0 0.25 0"/>
<feBlend mode="normal" in2="BackgroundImageFix" result="effect1_dropShadow"/>
<feBlend mode="normal" in="SourceGraphic" in2="effect1_dropShadow" result="shape"/>
</filter>
</defs>
</svg>
