<svg width="1052" height="1052" viewBox="0 0 1052 1052" fill="none" xmlns="http://www.w3.org/2000/svg">
<path d="M526 0C235.945 0 0 235.968 0 526C0 816.032 235.945 1052 526 1052C816.055 1052 1052 816.032 1052 526C1052 235.968 816.055 0 526 0ZM526 1006.26C261.193 1006.26 45.7391 790.83 45.7391 526C45.7391 261.17 261.193 45.7391 526 45.7391C790.807 45.7391 1006.26 261.17 1006.26 526C1006.26 790.83 790.807 1006.26 526 1006.26Z" fill="black"/>
<path d="M846.174 503.13H205.826C193.179 503.13 182.957 513.376 182.957 526C182.957 715.154 336.846 869.043 526 869.043C715.154 869.043 869.043 715.154 869.043 526C869.043 513.376 858.821 503.13 846.174 503.13ZM526 823.304C369.755 823.304 241.297 702.164 229.565 548.869H822.435C810.703 702.164 682.245 823.304 526 823.304Z" fill="black"/>
<path d="M617.479 411.652H754.696C767.343 411.652 777.566 401.407 777.566 388.783C777.566 376.159 767.343 365.913 754.696 365.913H660.199L727.984 264.258C735.005 253.761 732.17 239.536 721.65 232.538C711.084 225.517 696.905 228.376 689.929 238.873L598.451 376.09C593.786 383.111 593.328 392.122 597.308 399.554C601.287 406.987 609.04 411.652 617.479 411.652Z" fill="black"/>
<path d="M297.304 411.652H434.522C442.96 411.652 450.713 407.01 454.692 399.577C458.672 392.145 458.214 383.111 453.549 376.113L362.071 238.896C355.073 228.399 340.871 225.54 330.351 232.561C319.831 239.559 316.995 253.761 324.016 264.281L391.801 365.913H297.304C284.657 365.913 274.435 376.159 274.435 388.783C274.435 401.407 284.657 411.652 297.304 411.652Z" fill="black"/>
</svg>
