<svg width="1221" height="1221" viewBox="0 0 1221 1221" fill="none" xmlns="http://www.w3.org/2000/svg">
<path d="M610.5 0C273.876 0 0 273.876 0 610.5C0 947.124 273.876 1221 610.5 1221C947.124 1221 1221 947.124 1221 610.5C1221 273.876 947.124 0 610.5 0ZM610.5 1167.91C303.127 1167.91 53.087 917.873 53.087 610.5C53.087 303.127 303.127 53.087 610.5 53.087C917.873 53.087 1167.91 303.127 1167.91 610.5C1167.91 917.873 917.873 1167.91 610.5 1167.91Z" fill="white"/>
<path d="M477.782 504.326C477.782 460.423 442.055 424.696 398.152 424.696C354.249 424.696 318.521 460.423 318.521 504.326C318.521 548.229 354.249 583.956 398.152 583.956C442.055 583.956 477.782 548.229 477.782 504.326ZM371.608 504.326C371.608 489.701 383.526 477.783 398.152 477.783C412.777 477.783 424.695 489.701 424.695 504.326C424.695 518.951 412.777 530.869 398.152 530.869C383.526 530.869 371.608 518.951 371.608 504.326Z" fill="white"/>
<path d="M822.848 424.696C778.945 424.696 743.217 460.423 743.217 504.326C743.217 548.229 778.945 583.956 822.848 583.956C866.751 583.956 902.478 548.229 902.478 504.326C902.478 460.423 866.751 424.696 822.848 424.696ZM822.848 530.869C808.222 530.869 796.304 518.951 796.304 504.326C796.304 489.701 808.222 477.783 822.848 477.783C837.473 477.783 849.391 489.701 849.391 504.326C849.391 518.951 837.473 530.869 822.848 530.869Z" fill="white"/>
<path d="M867.096 749.986C856.16 740.191 839.358 741.147 829.616 752.056C774.247 813.929 694.404 849.391 610.5 849.391C526.623 849.391 446.753 813.929 391.383 752.056C381.589 741.147 364.84 740.191 353.904 749.986C342.968 759.754 342.066 776.53 351.834 787.465C417.263 860.566 511.546 902.478 610.5 902.478C709.481 902.478 803.763 860.54 869.166 787.465C878.934 776.53 878.005 759.754 867.096 749.986Z" fill="white"/>
</svg>
