<svg width="999" height="999" viewBox="0 0 999 999" fill="none" xmlns="http://www.w3.org/2000/svg">
<path d="M499.5 0C224.08 0 0 224.08 0 499.5C0 774.92 224.08 999 499.5 999C774.92 999 999 774.92 999 499.5C999 224.08 774.92 0 499.5 0ZM499.5 955.565C248.013 955.565 43.4348 750.987 43.4348 499.5C43.4348 248.013 248.013 43.4348 499.5 43.4348C750.987 43.4348 955.565 248.013 955.565 499.5C955.565 750.987 750.987 955.565 499.5 955.565Z" fill="white"/>
<path d="M325.761 477.783C361.682 477.783 390.913 448.551 390.913 412.63C390.913 376.71 361.682 347.478 325.761 347.478C289.84 347.478 260.609 376.71 260.609 412.63C260.609 448.551 289.84 477.783 325.761 477.783ZM325.761 390.913C337.727 390.913 347.478 400.664 347.478 412.63C347.478 424.597 337.727 434.348 325.761 434.348C313.795 434.348 304.044 424.597 304.044 412.63C304.044 400.664 313.795 390.913 325.761 390.913Z" fill="white"/>
<path d="M673.239 347.478C637.319 347.478 608.087 376.71 608.087 412.63C608.087 448.551 637.319 477.783 673.239 477.783C709.16 477.783 738.391 448.551 738.391 412.63C738.391 376.71 709.16 347.478 673.239 347.478ZM673.239 434.348C661.273 434.348 651.522 424.597 651.522 412.63C651.522 400.664 661.273 390.913 673.239 390.913C685.205 390.913 694.957 400.664 694.957 412.63C694.957 424.597 685.205 434.348 673.239 434.348Z" fill="white"/>
<path d="M716.674 608.087H282.326C270.338 608.087 260.609 617.816 260.609 629.804C260.609 641.792 270.338 651.522 282.326 651.522H716.674C728.662 651.522 738.391 641.792 738.391 629.804C738.391 617.816 728.662 608.087 716.674 608.087Z" fill="white"/>
</svg>
