<svg width="1266" height="1266" viewBox="0 0 1266 1266" fill="none" xmlns="http://www.w3.org/2000/svg">
<path d="M633 0C283.969 0 0 283.969 0 633C0 982.031 283.969 1266 633 1266C982.058 1266 1266 982.031 1266 633C1266 283.969 982.058 0 633 0ZM633 1210.96C314.298 1210.96 55.0435 951.702 55.0435 633C55.0435 314.298 314.298 55.0435 633 55.0435C951.674 55.0435 1210.96 314.298 1210.96 633C1210.96 951.702 951.674 1210.96 633 1210.96Z" fill="black"/>
<path d="M495.391 522.913C495.391 477.392 458.347 440.348 412.826 440.348C367.305 440.348 330.261 477.392 330.261 522.913C330.261 568.434 367.305 605.478 412.826 605.478C458.347 605.478 495.391 568.434 495.391 522.913ZM385.304 522.913C385.304 507.748 397.661 495.391 412.826 495.391C427.99 495.391 440.348 507.748 440.348 522.913C440.348 538.077 427.99 550.435 412.826 550.435C397.661 550.435 385.304 538.077 385.304 522.913Z" fill="black"/>
<path d="M853.174 440.348C807.653 440.348 770.608 477.392 770.608 522.913C770.608 558.746 793.699 589.02 825.652 600.414V688.043C825.652 703.235 837.954 715.565 853.174 715.565C868.393 715.565 880.695 703.235 880.695 688.043V600.414C912.648 589.02 935.739 558.746 935.739 522.913C935.739 477.392 898.695 440.348 853.174 440.348ZM853.174 550.435C837.982 550.435 825.652 538.077 825.652 522.913C825.652 507.748 837.982 495.391 853.174 495.391C868.366 495.391 880.695 507.748 880.695 522.913C880.695 538.077 868.366 550.435 853.174 550.435Z" fill="black"/>
<path d="M633 770.608C530.399 770.608 432.642 814.065 364.801 889.86C354.673 901.199 355.636 918.593 366.947 928.721C378.286 938.876 395.68 937.886 405.808 926.574C463.218 862.421 546.031 825.652 633 825.652C719.969 825.652 802.782 862.421 860.192 926.574C865.614 932.656 873.155 935.739 880.696 935.739C887.218 935.739 893.824 933.427 899.053 928.721C910.364 918.593 911.327 901.199 901.199 889.86C833.358 814.093 735.629 770.608 633 770.608Z" fill="black"/>
<path d="M920.547 278.107L810.46 223.063C796.892 216.266 780.352 221.77 773.526 235.366C766.701 248.989 772.233 265.502 785.828 272.327L895.915 327.371C899.851 329.325 904.062 330.261 908.19 330.261C918.29 330.261 928.006 324.701 932.849 315.041C939.647 301.445 934.143 284.905 920.547 278.107Z" fill="black"/>
<path d="M357.81 330.261C361.938 330.261 366.149 329.325 370.084 327.371L480.171 272.328C493.767 265.53 499.272 248.989 492.474 235.394C485.676 221.798 469.19 216.266 455.54 223.091L345.453 278.135C331.857 284.933 326.352 301.473 333.15 315.069C337.994 324.702 347.709 330.261 357.81 330.261Z" fill="black"/>
</svg>
